.
 
http://www.scenetime.com    -   SceneTime [ We been having it ] !!!


How come you press harder on a remote control when you know the battery is dead? so you better seed to get speed ;)

        Seed back for speed


...................................NFO:.................................................








































          
          
              
              
                    
                    
                    
                    

Hostage.2005.BRRip.Xvid.AC3-SiC

Poster:
[img]http://img594.imageshack.us/img594/5374/canvaspi.png[/img]

IMDB Link:
http://www.imdb.com/title/tt0340163/

Description:
A failed police negotiator turned small town cop, must save the lives of a family 
held hostage, which draws him into a much more dangerous situation.

MediaInfo:
General
Complete name                    : Hostage.2005.BRRip.Xvid.AC3-SiC.avi
Format                           : AVI
Format/Info                      : Audio Video Interleave
File size                        : 1.30 GiB
Duration                         : 1h 53mn
Overall bit rate                 : 1 640 Kbps

Video
ID                               : 0
Format                           : MPEG-4 Visual
Format profile                   : Advanced Simple@L5
Format settings, BVOP            : Yes
Format settings, QPel            : No
Format settings, GMC             : No warppoints
Format settings, Matrix          : Default (H.263)
Muxing mode                      : Packed bitstream
Codec ID                         : XVID
Codec ID/Hint                    : XviD
Duration                         : 1h 53mn
Bit rate                         : 1 248 Kbps
Width                            : 720 pixels
Height                           : 304 pixels
Display aspect ratio             : 2.35:1
Frame rate                       : 23.976 fps
Resolution                       : 8 bits
Colorimetry                      : 4:2:0
Scan type                        : Progressive
Bits/(Pixel*Frame)               : 0.238
Stream size                      : 1 012 MiB (76%)
Writing library                  : XviD 64

Audio
ID                               : 1
Format                           : AC-3
Format/Info                      : Audio Coding 3
Format_Settings_ModeExtension    : CM (complete main)
Codec ID                         : 2000
Duration                         : 1h 53mn
Bit rate mode                    : Constant
Bit rate                         : 384 Kbps
Channel(s)                       : 6 channels
Channel positions                : Front: L C R, Side: L R, LFE
Sampling rate                    : 48.0 KHz
Stream size                      : 311 MiB (23%)
Alignment                        : Aligned on interleaves
Interleave, duration             : 64 ms (1.53 video frames)
Interleave, preload duration     : 192 ms
Title                            : 6ch English

Screenshots:
[img]http://img189.imageshack.us/img189/1231/hostage2005brripxvidac3.png[/img]
[img]http://img26.imageshack.us/img26/9650/vlcsnap2011080519h37m04.png[/img]
[img]http://img834.imageshack.us/img834/1231/hostage2005brripxvidac3.png[/img]
[img]http://img7.imageshack.us/img7/1231/hostage2005brripxvidac3.png[/img]
[img]http://img4.imageshack.us/img4/1231/hostage2005brripxvidac3.png[/img]

Note :   N/A 

Source : BluRay-HDChina Thanks!!!

Encoder: Bezauk

Enjoy!

Respects to CaptainHomey, Cyanide, CM8, Rx, THC, ELEKTRI4KA, 
Killerhz, PA, YeFsTe, BoxSlots, MrRep and everyone in the struggle...